<svg width="90" height="90" viewBox="0 0 90 90" fill="none" xmlns="http://www.w3.org/2000/svg">
<g clip-path="url(#clip0_911_199)">
<path d="M0 20.25C0 13.1618 0 9.61775 1.37945 6.91043C2.59285 4.52901 4.52901 2.59285 6.91043 1.37945C9.61775 0 13.1618 0 20.25 0H57.375C68.7948 0 74.5047 0 78.8665 2.22245C82.7033 4.17736 85.8226 7.29673 87.7776 11.1335C90 15.4953 90 21.2052 90 32.625V57.375C90 68.7948 90 74.5047 87.7776 78.8665C85.8226 82.7033 82.7033 85.8226 78.8665 87.7776C74.5047 90 68.7948 90 57.375 90H32.625C21.2052 90 15.4953 90 11.1335 87.7776C7.29673 85.8226 4.17736 82.7033 2.22245 78.8665C0 74.5047 0 68.7948 0 57.375V20.25Z" fill="#585858"/>
<path d="M55.5469 38.6719H90V90H55.5469V38.6719Z" fill="#7E7E7E"/>
<path d="M0 0H35.2969C42.385 0 45.9291 0 48.6364 1.37945C51.0179 2.59285 52.954 4.52901 54.1674 6.91043C55.5469 9.61775 55.5469 13.1618 55.5469 20.25V38.6719H0V0Z" fill="#AFAFAF"/>
<path d="M0 38.6719H55.5469V90H0V38.6719Z" fill="#FF9C00"/>
<rect x="34.4531" y="38.6719" width="21.0938" height="51.3281" fill="#FF9578"/>
<path d="M0 38.6719H55.5469V39.8672C55.5469 46.9554 55.5469 50.4994 54.1674 53.2068C52.954 55.5882 51.0179 57.5243 48.6364 58.7377C45.9291 60.1172 42.385 60.1172 35.2969 60.1172H0V38.6719Z" fill="#FFB2B2"/>
</g>
<defs>
<clipPath id="clip0_911_199">
<path d="M0 20.25C0 13.1618 0 9.61775 1.37945 6.91043C2.59285 4.52901 4.52901 2.59285 6.91043 1.37945C9.61775 0 13.1618 0 20.25 0H57.375C68.7948 0 74.5047 0 78.8665 2.22245C82.7033 4.17736 85.8226 7.29673 87.7776 11.1335C90 15.4953 90 21.2052 90 32.625V57.375C90 68.7948 90 74.5047 87.7776 78.8665C85.8226 82.7033 82.7033 85.8226 78.8665 87.7776C74.5047 90 68.7948 90 57.375 90H32.625C21.2052 90 15.4953 90 11.1335 87.7776C7.29673 85.8226 4.17736 82.7033 2.22245 78.8665C0 74.5047 0 68.7948 0 57.375V20.25Z" fill="white"/>
</clipPath>
</defs>
</svg>
