<svg width="222" height="48" viewBox="0 0 222 48" fill="none" xmlns="http://www.w3.org/2000/svg">
<g clip-path="url(#clip0_2225_105)">
<path d="M72.1652 8.93287C81.1931 8.93287 85.1067 12.8909 85.1067 18.539V19.1616H76.5235V18.539C76.5235 16.6711 75.1448 15.4703 71.9428 15.4703C69.0076 15.4703 67.6734 16.4932 67.6734 17.7385C67.6734 19.1616 68.6963 19.7397 73.9886 21.0739C83.2389 23.0752 85.5514 25.2988 85.5514 30.2353C85.5514 36.5059 80.2147 39.8858 71.9873 39.8858C62.3812 39.8858 58.5565 35.7944 58.5565 29.9684V29.079H67.2287V29.4792C67.2287 31.9697 69.0076 33.3484 72.2541 33.3484C75.4562 33.3484 76.8793 32.4144 76.8793 30.9468C76.8793 29.4348 75.8564 28.9011 70.5642 27.5224C61.3138 25.6101 59.0013 22.9862 59.0013 18.3611C59.0013 12.8465 64.1601 8.93287 72.1652 8.93287ZM89.9042 9.59996H113.697V16.4932H98.443V20.9405H109.917V27.4335H98.443V32.3255H113.697V39.2188H89.9042V9.59996ZM127.72 29.3903V39.2188H118.959V9.59996H134.969C141.373 9.59996 145.42 12.9799 145.42 18.5834V20.2734C145.42 24.3204 143.375 27.2111 139.861 28.5453L146.532 39.2188H137.015L131.145 29.3903H127.72ZM127.676 16.1374V23.2086H132.256C135.37 23.2086 136.57 21.9634 136.57 20.0955V19.2505C136.57 17.3382 135.37 16.1374 132.301 16.1374H127.676ZM150.582 9.59996H159.298V39.2188H150.582V9.59996ZM165.56 9.59996H189.353V16.4932H174.099V20.9405H185.573V27.4335H174.099V32.3255H189.353V39.2188H165.56V9.59996ZM206.321 8.93287C215.349 8.93287 219.263 12.8909 219.263 18.539V19.1616H210.68V18.539C210.68 16.6711 209.301 15.4703 206.099 15.4703C203.164 15.4703 201.83 16.4932 201.83 17.7385C201.83 19.1616 202.853 19.7397 208.145 21.0739C217.395 23.0752 219.708 25.2988 219.708 30.2353C219.708 36.5059 214.371 39.8858 206.144 39.8858C196.537 39.8858 192.713 35.7944 192.713 29.9684V29.079H201.385V29.4792C201.385 31.9697 203.164 33.3484 206.41 33.3484C209.612 33.3484 211.036 32.4144 211.036 30.9468C211.036 29.4348 210.013 28.9011 204.72 27.5224C195.47 25.6101 193.158 22.9862 193.158 18.3611C193.158 12.8465 198.316 8.93287 206.321 8.93287Z" fill="white"/>
</g>
<g clip-path="url(#clip1_2225_105)">
<path d="M0 10.8C0 7.01965 0 5.12947 0.735706 3.68556C1.38285 2.41547 2.41547 1.38285 3.68556 0.735706C5.12947 0 7.01965 0 10.8 0H30.6C36.6906 0 39.7359 0 42.0622 1.1853C44.1084 2.22793 45.7721 3.89159 46.8147 5.93785C48 8.26414 48 11.3094 48 17.4V30.6C48 36.6906 48 39.7359 46.8147 42.0622C45.7721 44.1084 44.1084 45.7721 42.0622 46.8147C39.7359 48 36.6906 48 30.6 48H17.4C11.3094 48 8.26414 48 5.93785 46.8147C3.89159 45.7721 2.22793 44.1084 1.1853 42.0622C0 39.7359 0 36.6906 0 30.6V10.8Z" fill="#585858"/>
<path d="M29.625 20.625H48V48H29.625V20.625Z" fill="#7E7E7E"/>
<path d="M0 0H18.825C22.6054 0 24.4955 0 25.9394 0.735706C27.2095 1.38285 28.2422 2.41547 28.8893 3.68556C29.625 5.12947 29.625 7.01965 29.625 10.8V20.625H0V0Z" fill="#AFAFAF"/>
<path d="M0 20.625H29.625V48H0V20.625Z" fill="#FF9C00"/>
<rect x="18.375" y="20.625" width="11.25" height="27.375" fill="#FF9578"/>
<path d="M0 20.625H29.625V21.2625C29.625 25.0429 29.625 26.933 28.8893 28.3769C28.2422 29.647 27.2095 30.6796 25.9394 31.3268C24.4955 32.0625 22.6054 32.0625 18.825 32.0625H0V20.625Z" fill="#FFB2B2"/>
</g>
<defs>
<clipPath id="clip0_2225_105">
<rect width="165" height="45.1172" fill="white" transform="translate(57 0.441406)"/>
</clipPath>
<clipPath id="clip1_2225_105">
<path d="M0 10.8C0 7.01965 0 5.12947 0.735706 3.68556C1.38285 2.41547 2.41547 1.38285 3.68556 0.735706C5.12947 0 7.01965 0 10.8 0H30.6C36.6906 0 39.7359 0 42.0622 1.1853C44.1084 2.22793 45.7721 3.89159 46.8147 5.93785C48 8.26414 48 11.3094 48 17.4V30.6C48 36.6906 48 39.7359 46.8147 42.0622C45.7721 44.1084 44.1084 45.7721 42.0622 46.8147C39.7359 48 36.6906 48 30.6 48H17.4C11.3094 48 8.26414 48 5.93785 46.8147C3.89159 45.7721 2.22793 44.1084 1.1853 42.0622C0 39.7359 0 36.6906 0 30.6V10.8Z" fill="white"/>
</clipPath>
</defs>
</svg>
