<?xml version="1.0" standalone="no"?>
<!DOCTYPE svg PUBLIC "-//W3C//DTD SVG 20010904//EN"
 "http://www.w3.org/TR/2001/REC-SVG-20010904/DTD/svg10.dtd">
<svg version="1.0" xmlns="http://www.w3.org/2000/svg"
 width="260.000000pt" height="260.000000pt" viewBox="0 0 260.000000 260.000000"
 preserveAspectRatio="xMidYMid meet">
<metadata>
Created by potrace 1.11, written by Peter Selinger 2001-2013
</metadata>
<g transform="translate(0.000000,260.000000) scale(0.100000,-0.100000)"
fill="#000000" stroke="none">
<path d="M0 1300 l0 -1300 1300 0 1300 0 0 1300 0 1300 -1300 0 -1300 0 0
-1300z m1845 1000 c257 -97 431 -351 516 -752 31 -145 31 -367 1 -490 -59
-240 -203 -422 -420 -532 -30 -15 -56 -25 -59 -23 -4 5 -163 586 -163 599 0 4
17 16 38 27 61 31 119 101 138 167 35 122 0 307 -72 379 -82 82 -223 62 -277
-39 -21 -40 -22 -51 -24 -411 -1 -413 -4 -457 -38 -556 -66 -195 -189 -306
-399 -359 -188 -48 -367 -7 -521 117 -152 123 -272 348 -324 611 -54 267 -29
474 82 672 58 104 214 259 320 319 43 24 79 42 81 40 5 -5 156 -572 156 -584
0 -6 -12 -18 -27 -27 -49 -29 -105 -92 -132 -148 -22 -47 -26 -68 -25 -140 2
-195 107 -317 242 -281 54 15 86 43 108 93 16 38 19 90 25 448 7 449 9 461 77
600 69 141 200 242 368 285 87 22 251 14 329 -15z"/>
</g>
</svg>
